<?xml version="1.0" encoding="utf-8"?>
<!-- Generator: Adobe Illustrator 15.0.0, SVG Export Plug-In . SVG Version: 6.00 Build 0)  -->
<!DOCTYPE svg PUBLIC "-//W3C//DTD SVG 1.1//EN" "http://www.w3.org/Graphics/SVG/1.1/DTD/svg11.dtd">
<svg version="1.1" id="Layer_1" xmlns="http://www.w3.org/2000/svg" xmlns:xlink="http://www.w3.org/1999/xlink" x="0px" y="0px"
	 width="25px" height="40px" viewBox="0 0 25 40" enable-background="new 0 0 25 40" xml:space="preserve">
<path d="M0.673,17.903h4.152v4.193H0.673V17.903z M0.673,22.81h4.152v4.152H0.673V22.81z M5.58,13.038h4.152v4.152H5.58V13.038z
	 M5.58,22.81h4.152v4.152H5.58V22.81z M10.487,8.132h4.152v4.151h-4.152V8.132z M10.487,22.81h4.152v4.152h-4.152V22.81z
	 M15.352,3.225h4.152v4.152h-4.152V3.225z M15.352,8.132h4.152v4.151h-4.152V8.132z M15.352,13.038h4.152v4.152h-4.152V13.038z
	 M15.352,17.903h4.152v4.193h-4.152V17.903z M15.352,22.81h4.152v4.152h-4.152V22.81z M15.352,27.717h4.152v4.151h-4.152V27.717z
	 M15.352,32.623h4.152v4.152h-4.152V32.623z M20.258,22.81h4.152v4.152h-4.152V22.81z"/>
</svg>
