<?xml version="1.0" encoding="utf-8"?>
<!-- Generator: Adobe Illustrator 15.0.0, SVG Export Plug-In . SVG Version: 6.00 Build 0)  -->
<!DOCTYPE svg PUBLIC "-//W3C//DTD SVG 1.1//EN" "http://www.w3.org/Graphics/SVG/1.1/DTD/svg11.dtd">
<svg version="1.1" id="Layer_1" xmlns="http://www.w3.org/2000/svg" xmlns:xlink="http://www.w3.org/1999/xlink" x="0px" y="0px"
	 width="25px" height="40px" viewBox="0 0 25 40" enable-background="new 0 0 25 40" xml:space="preserve">
<rect x="0.632" y="27.717" width="4.152" height="4.152"/>
<rect x="0.59" y="32.623" width="4.151" height="4.152"/>
<rect x="5.56" y="22.81" width="4.152" height="4.152"/>
<rect x="10.425" y="17.924" width="4.193" height="4.152"/>
<rect x="15.331" y="13.038" width="4.193" height="4.152"/>
<rect x="20.196" y="8.131" width="4.194" height="4.152"/>
<rect x="20.237" y="3.225" width="4.194" height="4.152"/>
<rect x="0.611" y="8.131" width="4.194" height="4.152"/>
<rect x="0.611" y="3.225" width="4.194" height="4.152"/>
<rect x="5.539" y="8.131" width="4.194" height="4.152"/>
<rect x="5.539" y="3.225" width="4.194" height="4.152"/>
<rect x="15.311" y="32.623" width="4.193" height="4.152"/>
<rect x="15.311" y="27.717" width="4.193" height="4.152"/>
<rect x="20.238" y="32.623" width="4.193" height="4.152"/>
<rect x="20.238" y="27.717" width="4.193" height="4.152"/>
</svg>
