<?xml version="1.0" encoding="utf-8"?>
<!-- Generator: Adobe Illustrator 15.0.0, SVG Export Plug-In . SVG Version: 6.00 Build 0)  -->
<!DOCTYPE svg PUBLIC "-//W3C//DTD SVG 1.1//EN" "http://www.w3.org/Graphics/SVG/1.1/DTD/svg11.dtd">
<svg version="1.1" id="Layer_1" xmlns="http://www.w3.org/2000/svg" xmlns:xlink="http://www.w3.org/1999/xlink" x="0px" y="0px"
	 width="25px" height="40px" viewBox="0 0 25 40" enable-background="new 0 0 25 40" xml:space="preserve">
<path d="M5.539,8.132h4.152v4.151H5.539V8.132z M5.539,32.623h4.152v4.152H5.539V32.623z M10.446,3.225h4.152v4.152h-4.152V3.225z
	 M10.446,8.132h4.152v4.151h-4.152V8.132z M10.446,13.038h4.152v4.152h-4.152V13.038z M10.446,17.903h4.152v4.193h-4.152V17.903z
	 M10.446,22.81h4.152v4.152h-4.152V22.81z M10.446,27.717h4.152v4.151h-4.152V27.717z M10.446,32.623h4.152v4.152h-4.152V32.623z
	 M15.353,32.623h4.151v4.152h-4.151V32.623z"/>
</svg>
