<?xml version="1.0" encoding="utf-8"?>
<!-- Generator: Adobe Illustrator 15.0.0, SVG Export Plug-In . SVG Version: 6.00 Build 0)  -->
<!DOCTYPE svg PUBLIC "-//W3C//DTD SVG 1.1//EN" "http://www.w3.org/Graphics/SVG/1.1/DTD/svg11.dtd">
<svg version="1.1" id="Layer_1" xmlns="http://www.w3.org/2000/svg" xmlns:xlink="http://www.w3.org/1999/xlink" x="0px" y="0px"
	 width="25px" height="40px" viewBox="0 0 25 40" enable-background="new 0 0 25 40" xml:space="preserve">
<path d="M0.632,8.132h4.152v4.151H0.632V8.132z M0.632,13.038h4.152v4.152H0.632V13.038z M0.632,17.903h4.152v4.193H0.632V17.903z
	 M0.632,22.81h4.152v4.152H0.632V22.81z M0.632,27.717h4.152v4.151H0.632V27.717z M0.632,32.623h4.152v4.152H0.632V32.623z
	 M5.54,3.225h4.152v4.152H5.54V3.225z M5.54,22.81h4.152v4.152H5.54V22.81z M10.446,3.225h4.151v4.152h-4.151V3.225z M10.446,22.81
	h4.151v4.152h-4.151V22.81z M15.311,3.225h4.194v4.152h-4.194V3.225z M15.311,22.81h4.194v4.152h-4.194V22.81z M20.218,8.132h4.151
	v4.151h-4.151V8.132z M20.218,13.038h4.151v4.152h-4.151V13.038z M20.218,17.903h4.151v4.193h-4.151V17.903z M20.218,22.81h4.151
	v4.152h-4.151V22.81z M20.218,27.717h4.151v4.151h-4.151V27.717z M20.218,32.623h4.151v4.152h-4.151V32.623z"/>
</svg>
