<?xml version="1.0" encoding="utf-8"?>
<!-- Generator: Adobe Illustrator 15.0.0, SVG Export Plug-In . SVG Version: 6.00 Build 0)  -->
<!DOCTYPE svg PUBLIC "-//W3C//DTD SVG 1.1//EN" "http://www.w3.org/Graphics/SVG/1.1/DTD/svg11.dtd">
<svg version="1.1" id="Layer_1" xmlns="http://www.w3.org/2000/svg" xmlns:xlink="http://www.w3.org/1999/xlink" x="0px" y="0px"
	 width="25px" height="40px" viewBox="0 0 25 40" enable-background="new 0 0 25 40" xml:space="preserve">
<path d="M0.632,3.225h4.152v4.152H0.632V3.225z M0.632,8.132h4.152v4.151H0.632V8.132z M0.632,13.038h4.152v4.152H0.632V13.038z
	 M0.632,17.903h4.152v4.193H0.632V17.903z M0.632,22.81h4.152v4.152H0.632V22.81z M0.632,27.717h4.152v4.151H0.632V27.717z
	 M0.632,32.623h4.152v4.152H0.632V32.623z M5.539,3.225H9.69v4.152H5.539V3.225z M5.539,17.903H9.69v4.193H5.539V17.903z
	 M10.445,3.225h4.152v4.152h-4.152V3.225z M10.445,17.903h4.152v4.193h-4.152V17.903z M15.311,3.225h4.193v4.152h-4.193V3.225z
	 M15.311,17.903h4.193v4.193h-4.193V17.903z M20.217,8.132h4.194v4.151h-4.194V8.132z M20.217,13.038h4.194v4.152h-4.194V13.038z"/>
</svg>
