<?xml version="1.0" encoding="utf-8"?>
<!-- Generator: Adobe Illustrator 15.0.0, SVG Export Plug-In . SVG Version: 6.00 Build 0)  -->
<!DOCTYPE svg PUBLIC "-//W3C//DTD SVG 1.1//EN" "http://www.w3.org/Graphics/SVG/1.1/DTD/svg11.dtd">
<svg version="1.1" id="Layer_1" xmlns="http://www.w3.org/2000/svg" xmlns:xlink="http://www.w3.org/1999/xlink" x="0px" y="0px"
	 width="25px" height="40px" viewBox="0 0 25 40" enable-background="new 0 0 25 40" xml:space="preserve">
<path d="M0.59,3.225h4.152v4.152H0.59V3.225z M0.59,27.717h4.152v4.151H0.59V27.717z M0.59,32.623h4.152v4.152H0.59V32.623z
	 M5.497,3.225h4.151v4.152H5.497V3.225z M5.497,22.81h4.151v4.152H5.497V22.81z M5.497,32.623h4.151v4.152H5.497V32.623z
	 M10.403,3.225h4.152v4.152h-4.152V3.225z M10.403,17.903h4.152v4.193h-4.152V17.903z M10.403,32.623h4.152v4.152h-4.152V32.623z
	 M15.269,3.225h4.193v4.152h-4.193V3.225z M15.269,13.038h4.193v4.152h-4.193V13.038z M15.269,32.623h4.193v4.152h-4.193V32.623z
	 M20.175,3.225h4.194v4.152h-4.194V3.225z M20.175,8.132h4.194v4.151h-4.194V8.132z M20.175,32.623h4.194v4.152h-4.194V32.623z"/>
</svg>
