<?xml version="1.0" encoding="utf-8"?>
<!-- Generator: Adobe Illustrator 15.0.0, SVG Export Plug-In . SVG Version: 6.00 Build 0)  -->
<!DOCTYPE svg PUBLIC "-//W3C//DTD SVG 1.1//EN" "http://www.w3.org/Graphics/SVG/1.1/DTD/svg11.dtd">
<svg version="1.1" id="Layer_1" xmlns="http://www.w3.org/2000/svg" xmlns:xlink="http://www.w3.org/1999/xlink" x="0px" y="0px"
	 width="25px" height="40px" viewBox="0 0 25 40" enable-background="new 0 0 25 40" xml:space="preserve">
<path d="M0.631,8.132h4.152v4.151H0.631V8.132z M0.631,32.623h4.152v4.152H0.631V32.623z M5.538,3.225H9.69v4.152H5.538V3.225z
	 M5.538,27.717H9.69v4.151H5.538V27.717z M5.538,32.623H9.69v4.152H5.538V32.623z M10.445,3.225h4.152v4.152h-4.152V3.225z
	 M10.445,22.81h4.152v4.152h-4.152V22.81z M10.445,32.623h4.152v4.152h-4.152V32.623z M15.31,3.225h4.194v4.152H15.31V3.225z
	 M15.31,17.903h4.194v4.193H15.31V17.903z M15.31,32.623h4.194v4.152H15.31V32.623z M20.217,8.132h4.151v4.151h-4.151V8.132z
	 M20.217,13.038h4.151v4.152h-4.151V13.038z M20.217,32.623h4.151v4.152h-4.151V32.623z"/>
</svg>
