<?xml version="1.0" encoding="utf-8"?>
<!-- Generator: Adobe Illustrator 15.0.0, SVG Export Plug-In . SVG Version: 6.00 Build 0)  -->
<!DOCTYPE svg PUBLIC "-//W3C//DTD SVG 1.1//EN" "http://www.w3.org/Graphics/SVG/1.1/DTD/svg11.dtd">
<svg version="1.1" id="Layer_1" xmlns="http://www.w3.org/2000/svg" xmlns:xlink="http://www.w3.org/1999/xlink" x="0px" y="0px"
	 width="25px" height="40px" viewBox="0 0 25 40" enable-background="new 0 0 25 40" xml:space="preserve">
<path d="M0.633,3.225h4.151v4.152H0.633V3.225z M0.633,8.132h4.151v4.151H0.633V8.132z M0.633,13.038h4.151v4.152H0.633V13.038z
	 M0.633,17.903h4.151v4.193H0.633V17.903z M0.633,22.81h4.151v4.152H0.633V22.81z M0.633,27.717h4.151v4.151H0.633V27.717z
	 M0.633,32.623h4.151v4.152H0.633V32.623z M5.539,17.903h4.152v4.193H5.539V17.903z M10.446,13.038h4.151v4.152h-4.151V13.038z
	 M10.446,22.81h4.151v4.152h-4.151V22.81z M15.311,8.132h4.194v4.151h-4.194V8.132z M15.311,27.717h4.194v4.151h-4.194V27.717z
	 M20.218,3.225h4.151v4.152h-4.151V3.225z M20.218,32.623h4.151v4.152h-4.151V32.623z"/>
</svg>
